<svg xmlns="http://www.w3.org/2000/svg" viewBox="0 0 64 64"><title>Artboard-29</title><g id="Password"><path d="M28.707,45.707a1,1,0,0,0-1.414-1.414l-1,1L26,45.5859l-.293-.2929-1-1a1,1,0,0,0-1.414,1.414l1,1,.2929.293-.2929.293-1,1a1,1,0,0,0,1.414,1.414l1-1L26,48.4141l.293.2929,1,1a1,1,0,0,0,1.414-1.414l-1-1L27.4141,47l.2929-.293Z" style="fill:#19191c"/><path d="M36.707,45.707a1,1,0,0,0-1.414-1.414l-1,1L34,45.5859l-.293-.2929-1-1a1,1,0,0,0-1.414,1.414l1,1,.2929.293-.2929.293-1,1a1,1,0,0,0,1.414,1.414l1-1L34,48.4141l.293.2929,1,1a1,1,0,0,0,1.414-1.414l-1-1L35.4141,47l.2929-.293Z" style="fill:#19191c"/><path d="M44.707,45.707a1,1,0,0,0-1.414-1.414l-1,1L42,45.5859l-.293-.2929-1-1a1,1,0,0,0-1.414,1.414l1,1,.2929.293-.2929.293-1,1a1,1,0,0,0,1.414,1.414l1-1L42,48.4141l.293.2929,1,1a1,1,0,0,0,1.414-1.414l-1-1L43.4141,47l.2929-.293Z" style="fill:#19191c"/><path d="M20.707,45.707a1,1,0,0,0-1.414-1.414l-1,1L18,45.5859l-.293-.2929-1-1a1,1,0,0,0-1.414,1.414l1,1,.2929.293-.2929.293-1,1a1,1,0,0,0,1.414,1.414l1-1L18,48.4141l.293.2929,1,1a1,1,0,0,0,1.414-1.414l-1-1L19.4141,47l.2929-.293Z" style="fill:#19191c"/><path d="M12.707,45.707a1,1,0,0,0-1.414-1.414l-1,1L10,45.5859l-.293-.2929-1-1a1,1,0,1,0-1.414,1.414l1,1L8.5859,47l-.2929.293-1,1a1,1,0,1,0,1.414,1.414l1-1L10,48.4141l.293.2929,1,1a1,1,0,0,0,1.414-1.414l-1-1L11.4141,47l.2929-.293Z" style="fill:#19191c"/><path d="M56,40H8A7,7,0,0,0,8,54H56a7,7,0,0,0,0-14ZM3,47a5.0059,5.0059,0,0,1,5-5H49V52H8A5.0059,5.0059,0,0,1,3,47Zm53,5H51V42h5a5,5,0,0,1,0,10Z" style="fill:#19191c"/><path d="M57.71,47.2659A2.9682,2.9682,0,0,0,58,46a3,3,0,1,0-3,3,2.9634,2.9634,0,0,0,1.3047-.3112l1.0029,1.0036a1,1,0,0,0,1.4141-1.4141ZM54,46a1,1,0,1,1,1,1A1.0006,1.0006,0,0,1,54,46Z" style="fill:#19191c"/><path d="M25,38H39a3.0033,3.0033,0,0,0,3-3V22a3.0033,3.0033,0,0,0-3-3H38V16a6,6,0,0,0-12,0v3H25a3.0033,3.0033,0,0,0-3,3V35A3.0033,3.0033,0,0,0,25,38Zm3-22a4,4,0,0,1,8,0v3H28Zm-4,6a1.0006,1.0006,0,0,1,1-1H39a1.0006,1.0006,0,0,1,1,1V35a1.0006,1.0006,0,0,1-1,1H25a1.0006,1.0006,0,0,1-1-1Z" style="fill:#19191c"/><path d="M31,29.8157V32a1,1,0,0,0,2,0V29.8157a3,3,0,1,0-2,0ZM32,26a1,1,0,1,1-1,1A1.0006,1.0006,0,0,1,32,26Z" style="fill:#19191c"/></g></svg>